# xmcd CD database file
#
# Track frame offsets:
#	150
#	14639
#	29320
#	40508
#	60914
#	74080
#	87098
#	105733
#	117653
#	132869
#	152684
#
# Disc length: 2265 seconds
#
# Revision: 0
# Processed by: cddbd v1.5.2PL0 Copyright (c) Steve Scherf et al.
# Submitted via: CDex 1.51
#
DISCID=8e08d70b
DTITLE=Company Time - Company Time
DYEAR=1997
DGENRE=Country
TTITLE0=Deep down
TTITLE1=Company Time
TTITLE2=There goes my love
TTITLE3=Czardas
TTITLE4=Cast iron heart
TTITLE5=1-800 use to be
TTITLE6=Does he love you
TTITLE7=Love didn't do it
TTITLE8=Walking away a winner
TTITLE9=You win my love
TTITLE10=Hillbilly twist
EXTD=YEAR: 1997
EXTT0=
EXTT1=
EXTT2=
EXTT3=
EXTT4=
EXTT5=
EXTT6=
EXTT7=
EXTT8=
EXTT9=
EXTT10=
PLAYORDER=
